# xmcd
#
# Track frame offsets:
#  150
#  15113
#  31295
#  41032
#  59278
#  71967
#  94893
#  107824
#  121096
#  136098
#  149859
#  163137
#  172459
#  184802
#  200510
#
# Disc length: 2926 seconds
#
# Revision: 0
# Processed by: cddbd v1.5.1PL2 Copyright (c) Steve Scherf et al.
# Submitted via: Collectorz.com_Music_Collector 6.9
#
DISCID=e10b6c0f
DTITLE=Sing Blessings of God - So Much To Thank Him For
DYEAR=1900
DGENRE=
TTITLE0=So Much To Thank Him For
TTITLE1=You Are My All In All
TTITLE2=Holding Up The Ladder
TTITLE3=Were You There?
TTITLE4=Walkin' In Jerusalem
TTITLE5=Freedom Reigns
TTITLE6=Precious Lord
TTITLE7=Down In The River (Acappella)
TTITLE8=Angel Band (In Memory Of Tina Marie Zitek)
TTITLE9=Are You Washed In The Blood?
TTITLE10=Create In Me A Clean Heart
TTITLE11=Keep On The Sunny Side
TTITLE12=Will The Circle Be Unbroken (In Memory Of Our Mothers Who Have Passed)
TTITLE13=I'll Fly Away
TTITLE14=Where Are The Children?
EXTD=
EXTT0=
EXTT1=
EXTT2=
EXTT3=
EXTT4=
EXTT5=
EXTT6=
EXTT7=
EXTT8=
EXTT9=
EXTT10=
EXTT11=
EXTT12=
EXTT13=
EXTT14=
PLAYORDER=
